<?xml version="1.0" encoding="UTF-8"?> <!-- Generator: Adobe Illustrator 23.0.2, SVG Export Plug-In . SVG Version: 6.00 Build 0) --> <svg xmlns="http://www.w3.org/2000/svg" xmlns:xlink="http://www.w3.org/1999/xlink" id="Lager_1" x="0px" y="0px" viewBox="0 0 141.7 95.3" style="enable-background:new 0 0 141.7 95.3;" xml:space="preserve"> <style type="text/css"> .st0{fill:#FFFFFF;} </style> <g> <path d="M110.7,95.3h31.1v-27c0-2.9,0-5.4-2.1-7.5l-6.4-6.2c-1-1-2.8-2-5.1-2l-6.2-6.1c-2.3-2.3-4.2-2.6-6.4-2.6 c-1.8,0-3.1,0.5-3.9,1.6l0-0.1l-1-1.3L98.3,31.8v-7.4c0-2.9,0-5.4-1.7-7.1l-5.4-5.5c-1.1-1.1-3.6-3.2-7.8-3.2H76 c-2.2,0-3.8,0.9-4.4,2.7L61.5,1.7c-0.9-0.9-2-1.7-3.5-1.7c-3.2,0-4.4,1.5-4.4,4.7v3.7h-6.3c-7.4,0-11,2.3-12.4,7l-14-14 c-0.9-0.9-2.1-1.2-3.1-1.2h-3.2c-2.3,0-4,1-4.5,2.8L0.2,37c-0.1,0.5-0.2,1-0.2,1.5c0,0.9,0.3,1.9,1,2.5l7.8,7.7 c2,2,4.8,2.6,7.7,2.7v30.7c0,1.1,0.5,2.2,1.2,2.8l7.5,7.5c2.6,2.6,5.6,2.7,12.9,2.7h10.7h2.4H79h2.4h29H110.7z"></path> <g> <path class="st0" d="M30.2,38.2c0,1.5-1.3,2.4-2.6,2.4c-1.9,0-2.3-1.2-3-3.5l-2.5-8.4H10l-2.5,8.4c-0.6,2.3-1,3.5-3,3.5 c-1.3,0-2.6-0.9-2.6-2.4c0-0.3,0-0.5,0.1-0.9l9.8-33.5c0.3-1,1.3-1.7,2.5-1.7h3.4c1.2,0,2.1,0.7,2.5,1.7l9.8,33.5 C30.2,37.7,30.2,37.9,30.2,38.2z M16,7.4l-4.7,16.2h9.4L16,7.4z"></path> <path class="st0" d="M60.5,37.3c0,1.7-1.1,2.8-2.6,2.8H47.2c-7.7,0-11.1-3.9-11.1-10.9v-7.6c0-3.8,0.4-6.9,2.2-8.7 c1.8-1.9,4.7-2.6,8.9-2.6h8.1V4.7c0-1.7,1.1-2.8,2.6-2.8c1.5,0,2.6,1.1,2.6,2.8V37.3z M55.3,35V15.3h-8.1c-4.5,0-6.1,1.4-6.1,6.2 v7.6c0,4.3,1.7,5.9,6.1,5.9H55.3z"></path> <path class="st0" d="M83.2,15.8H76c-1.7,0-2.8-1.1-2.8-2.5s1.1-2.6,2.8-2.6h7.3c5.4,0,9.3,4.1,9.3,9.3v20.2H80.4 c-9.3,0-11.8-2.8-11.8-9.6c0-3.2,1-5.3,2.6-6.7c2.3-2,5.9-2.5,9.2-2.5h7.1C87.6,18.1,86.7,15.8,83.2,15.8z M80.4,35h7.1v-8.5h-7.1 c-4.1,0-7,0.6-7,4C73.5,34.4,76.5,35,80.4,35z"></path> </g> <g> <path class="st0" d="M20.9,83.9c-1.5,0-2.6-1.1-2.6-2.8V48.6c0-1.7,1.1-2.8,2.6-2.8H32c3.7,0,6.8,1.1,8.9,3.2 c1.6,1.7,2.5,4.1,2.5,7.3c0,3-1,6.2-4.5,7.8c3.3,1.5,5,4.6,5,8.7c0,6.2-3.4,11.1-11.9,11.1H20.9z M32,61.6c4.2,0,6-2,6-5.3 c0-3.9-2.8-5.4-6-5.4h-8.6v10.7H32z M32,66.6h-8.6v12.1H32c4.8,0,6.8-1.9,6.8-6C38.8,69.4,37.4,66.6,32,66.6z"></path> <path class="st0" d="M55.8,74.5c0,4.2,0.8,4.7,6.8,4.7h7c1.7,0,2.8,1.2,2.8,2.6s-1.1,2.5-2.8,2.5h-9.4c-7,0-9.7-3.4-9.7-8.5v-13 c0-6.1,2.9-8.6,11.5-8.6c9.7,0,12.4,2.5,12.4,8.6V69c0,1.4-1.1,2.5-2.8,2.5H55.8V74.5z M69.4,66.5v-1.8c0-4.9-0.8-5.6-7.3-5.6 c-5.3,0-6.3,0.8-6.3,5.6v1.8H69.4z"></path> <path class="st0" d="M95.3,59.6h-7.2c-1.7,0-2.8-1.1-2.8-2.5c0-1.5,1.1-2.6,2.8-2.6h7.3c5.4,0,9.3,4.1,9.3,9.3v20.2H92.5 c-9.3,0-11.8-2.8-11.8-9.6c0-3.2,1-5.3,2.6-6.7c2.3-2,5.9-2.5,9.2-2.5h7.1C99.7,61.8,98.8,59.6,95.3,59.6z M92.6,78.8h7.1v-8.5 h-7.1c-4.1,0-7,0.6-7,4C85.6,78.2,88.6,78.8,92.6,78.8z"></path> <path class="st0" d="M117.7,75.8c0,2.6,1.6,3.5,7.5,3.5h3.8c1.7,0,2.8,1.1,2.8,2.6c0,1.4-1.1,2.5-2.8,2.5h-3.9 c-8.9,0-12.6-2.9-12.6-8.5V48.5c0-1.7,1.1-2.8,2.6-2.8c1.4,0,2.6,1.1,2.6,2.8v6.1h11.5c1.7,0,2.8,1.1,2.8,2.6 c0,1.5-1.1,2.5-2.8,2.5h-11.5V75.8z"></path> </g> </g> </svg> 