<?xml version="1.0" encoding="UTF-8" standalone="no" ?>
<svg class="md:hidden" xmlns="http://www.w3.org/2000/svg" width="43" height="42" viewBox="0 0 43 42" fill="none">
               <path d="M27.3002 39.5829C33.1626 39.4561 38.4072 35.87 40.8842 30.5568C42.3208 27.4829 43.0444 24.013 42.8542 20.3582C42.2785 9.30395 33.1521 0.394029 22.082 0.0718569C9.95038 -0.282005 0 9.44655 0 21.5043C0 30.7099 5.80439 38.5583 13.9485 41.6004C13.1721 40.7871 12.6017 39.7941 12.2531 38.6217C11.7091 36.8101 11.725 34.6711 12.2954 32.2046L15.2319 19.8881H9.16343L10.1564 15.5837L10.4257 14.4429H16.5259L16.6368 13.9411L18.0628 7.76175L26.9727 6.05582L25.1506 13.9411L23.8408 19.8881L20.8197 33.2609C20.3602 35.2626 20.5398 36.8101 21.3743 37.8928C21.3743 37.8928 22.6207 39.6832 27.3002 39.5829ZM29.4128 13.4605C31.8951 12.9904 34.0288 15.1242 33.5588 17.6065C33.2947 18.9902 32.1803 20.1099 30.7912 20.374C28.3089 20.8441 26.1752 18.7103 26.6453 16.228C26.9093 14.8443 28.0237 13.7246 29.4128 13.4605Z" fill="#40A944"></path>
            </svg>
